<svg xmlns="http://www.w3.org/2000/svg" version="1.1" xmlns:xlink="http://www.w3.org/1999/xlink" xmlns:svgjs="http://svgjs.dev/svgjs" width="2000" height="136" viewBox="0 0 2000 136"><g transform="matrix(1,0,0,1,-1.2121212121212466,-0.13607161664029377)"><svg viewBox="0 0 396 27" data-background-color="#ffffff" preserveAspectRatio="xMidYMid meet" height="136" width="2000" xmlns="http://www.w3.org/2000/svg" xmlns:xlink="http://www.w3.org/1999/xlink"><g id="tight-bounds" transform="matrix(1,0,0,1,0.2400000000000091,0.02701421800946946)"><svg viewBox="0 0 395.52 26.94597156398104" height="26.94597156398104" width="395.52"><g><svg viewBox="0 0 395.52 26.94597156398104" height="26.94597156398104" width="395.52"><g><svg viewBox="0 0 395.52 26.94597156398104" height="26.94597156398104" width="395.52"><g><svg viewBox="0 0 395.52 26.94597156398104" height="26.94597156398104" width="395.52"><g><svg viewBox="0 0 395.52 26.94597156398104" height="26.94597156398104" width="395.52"><g transform="matrix(1,0,0,1,0,0)"><svg width="395.52" viewBox="4 -28.75 421.9800109863281 28.75" height="26.94597156398104" data-palette-color="#8dbdff"><path d="M4-3.4L4-25.3 9.85-28.75 20.2-28.75 20.2-22.85 10.5-22.85 10.5-5.65 20-5.65 20 0 9.85 0 4-3.4ZM32.15-19.45L38.65-19.45 38.65-25.3 32.8-28.75 22.45-28.75 22.45-22.85 32.15-22.85 32.15-19.45ZM38.65-3.4L38.65-17.2 22.45-17.2 22.45-11.5 32.15-11.5 32.15-5.65 22.65-5.65 22.65 0 32.8 0 38.65-3.4ZM46.65-28.75L46.65-28.75 52.95-28.75 52.95 0 46.65 0 46.65-28.75ZM61.95-28.75L61.95-28.75 77.95-28.75 77.95-22.85 68.25-22.85 68.25-17.2 77.95-17.2 77.95-11.35 68.25-11.35 68.25 0 61.95 0 61.95-28.75ZM96.4 0L96.4 0 96.4-11.9 91.7-14.35 96.4-16.6 96.4-25.3 90.5-28.75 80.2-28.75 80.2-22.85 90.09-22.85 90.09-17.2 80.2-17.2 80.2-11.35 90.09-11.35 90.09 0 96.4 0ZM104.89-28.75L104.89-28.75 111.19-28.75 111.19-5.85 120.69-5.85 120.69 0 104.89 0 104.89-28.75ZM123.34-5.85L123.34-5.85 123.34 0 139.34 0 139.34-5.85 123.34-5.85ZM143.84-25.3L143.84-25.3 149.54-28.75 159.84-28.75 159.84-23.1 150.14-23.1 150.14-17.2 159.84-17.2 159.84-11.5 150.14-11.5 150.14 0 143.84 0 143.84-25.3ZM178.29-25.3L178.29-25.3 172.39-28.75 162.09-28.75 162.09-23.1 171.99-23.1 171.99-17.2 162.09-17.2 162.09-11.5 171.99-11.5 171.99 0 178.29 0 178.29-25.3ZM183.19-3.4L183.19-25.3 189.04-28.75 199.39-28.75 199.39-23.1 189.69-23.1 189.69-5.85 199.19-5.85 199.19 0 189.04 0 183.19-3.4ZM217.84-9.3L211.34-9.3 211.34-5.85 201.84-5.85 201.84 0 211.99 0 217.84-3.4 217.84-9.3ZM211.34-19.6L217.84-19.6 217.84-25.3 211.99-28.75 201.64-28.75 201.64-23.1 211.34-23.1 211.34-19.6ZM222.74-25.3L222.74-25.3 228.44-28.75 238.74-28.75 238.74-23.1 229.04-23.1 229.04-17.2 238.74-17.2 238.74-11.5 229.04-11.5 229.04 0 222.74 0 222.74-25.3ZM257.19-25.3L257.19-25.3 251.29-28.75 240.99-28.75 240.99-23.1 250.89-23.1 250.89-17.2 240.99-17.2 240.99-11.5 250.89-11.5 250.89 0 257.19 0 257.19-25.3ZM266.18 0L266.18-28.75 282.18-28.75 282.18-23.1 272.48-23.1 272.48-5.85 282.18-5.85 282.18 0 266.18 0ZM300.63-3.4L300.63-25.3 294.98-28.75 284.63-28.75 284.63-23.1 294.33-23.1 294.33-5.85 284.63-5.85 284.63 0 294.98 0 300.63-3.4ZM309.63-28.75L309.63-28.75 325.63-28.75 325.63-22.85 315.93-22.85 315.93-17.2 325.63-17.2 325.63-11.5 315.93-11.5 315.93-5.65 325.43-5.65 325.43 0 309.63 0 309.63-28.75ZM328.08-5.65L328.08-5.65 328.08 0 344.08 0 344.08-5.65 328.08-5.65ZM344.08-22.85L344.08-22.85 344.08-28.75 327.88-28.75 327.88-22.85 344.08-22.85ZM335.98-11.5L335.98-11.5 335.98-17.2 327.88-17.2 327.88-11.5 335.98-11.5ZM350.58-28.75L350.58-28.75 356.28-28.75 366.58-19.05 366.58-11.5 356.88-20.65 356.88 0 350.58 0 350.58-28.75ZM385.03-28.75L385.03-28.75 379.38-28.75 369.03-19.05 369.03-11.5 378.73-20.65 378.73 0 385.03 0 385.03-28.75ZM425.98-26.9L411.58-13.15 411.58 0 405.93 0 405.93-13.15 391.53-26.9 397.23-28.75 408.73-17.8 408.73-17.8 420.33-28.75 425.98-26.9Z" opacity="1" transform="matrix(1,0,0,1,0,0)" fill="#8dbdff" class="undefined-text-0" data-fill-palette-color="primary" id="text-0"></path></svg></g></svg></g></svg></g></svg></g></svg></g><defs></defs></svg><rect width="395.52" height="26.94597156398104" fill="none" stroke="none" visibility="hidden"></rect></g></svg></g></svg>